<?xml version="1.0" encoding="UTF-8"?>
<svg id="Capa_2" data-name="Capa 2" xmlns="http://www.w3.org/2000/svg" viewBox="0 0 378.2 278.15">
  <defs>
    <style>
      .cls-1 {
        fill: #9bf4eb;
      }

      .cls-2 {
        fill: #bdbdbd;
      }

      .cls-3 {
        fill: #616262;
      }

      .cls-4 {
        fill: #424242;
      }

      .cls-5 {
        fill: #757576;
      }

      .cls-6 {
        fill: #18bdba;
      }

      .cls-7 {
        fill: #fff;
      }

      .cls-8 {
        fill: #eee;
      }

      .cls-9 {
        fill: #e0e0e0;
      }
    </style>
  </defs>
  <g id="BACKGROUND_2" data-name="BACKGROUND 2">
    <g>
      <g>
        <path class="cls-7" d="M69.15,212.46c-19.61,0-27.45-7.84-27.45-25.04v-52.94c0-3.77,1.66-5.43,5.43-5.43h23.38c3.77,0,5.43,1.66,5.43,5.43v41.33c0,3.17,1.81,5.13,4.67,5.13h14.03v-46.45c0-3.77,1.66-5.43,5.43-5.43h23.23c3.77,0,5.43,1.66,5.43,5.43v97.74c0,3.77-1.66,5.43-5.43,5.43h-23.23c-3.77,0-5.43-1.66-5.43-5.43v-19.76h-25.49Z"/>
        <path class="cls-7" d="M258.23,212.46c-19.61,0-27.45-7.84-27.45-25.04v-52.94c0-3.77,1.66-5.43,5.43-5.43h23.38c3.77,0,5.43,1.66,5.43,5.43v41.33c0,3.17,1.81,5.13,4.68,5.13h14.03v-46.45c0-3.77,1.66-5.43,5.43-5.43h23.23c3.77,0,5.43,1.66,5.43,5.43v97.74c0,3.77-1.66,5.43-5.43,5.43h-23.23c-3.77,0-5.43-1.66-5.43-5.43v-19.76h-25.49Z"/>
      </g>
      <g>
        <path class="cls-9" d="M120.77,152.66c-3.19-1.04-6.8.36-8.15,3.43-1.54,3.53.31,7.54,3.89,8.71l12.22,4v-13.53l-7.96-2.61Z"/>
        <path class="cls-9" d="M236.22,129.05c-3.77,0-5.43,1.66-5.43,5.43v16.74c5.85-2.78,11.07-6.92,15.14-12.19l2.45.95c1.37.54,2.93-.14,3.46-1.52l3.68-9.41h-19.3ZM255.49,171.7c-2.7-2-6.53-1.42-8.78,1.07l-10.81,11.97-5.11-9.51v12.19c0,6.08.98,10.98,3.12,14.79,1.96.2,3.99-.51,5.41-2.08l17.12-18.94c2.52-2.79,2.14-7.19-.95-9.49Z"/>
      </g>
      <path class="cls-7" d="M250.16,166.37c-2.69-2-6.53-1.43-8.78,1.07l-10.81,11.97-8.57-15.97c-1.4-2.61-3.68-4.73-6.65-5.89h0s-47.16-18.44-47.16-18.44h0c-4.13-1.6-8.58-.92-11.98,1.42h0s-.33.22-.33.22l-.18.14-19.27,13.31-20.96-6.87c-3.19-1.05-6.81.36-8.15,3.43-1.54,3.53.31,7.53,3.88,8.7l24.26,7.94c1.98.65,4.04.26,5.64-.84l.02.02,11.83-8.18,3.96-2.74c2-1.38,4.57.66,3.69,2.92l-1.75,4.48-31.89,81.61,17.25,6.74,17.12-43.81c.51-1.29,2.05-1.82,3.24-1.11,1.14.68,2.41,1.32,3.77,1.85,1.37.54,2.74.93,4.07,1.2,1.34.28,2.08,1.74,1.58,3.02l-17.11,43.8,17.24,6.74,31.89-81.61,2.74-7.02c.76-1.95,3.46-2.12,4.46-.27l3.57,6.64,6.81,12.67h.02c.34.63.77,1.22,1.34,1.73,2.63,2.38,6.7,2.17,9.08-.46h0s17.11-18.94,17.11-18.94c2.52-2.79,2.14-7.18-.95-9.48Z"/>
      <circle class="cls-4" cx="206" cy="111.91" r="33.09" transform="translate(-8.08 207.46) rotate(-52.57)"/>
      <path class="cls-2" d="M172.04,82.83h.84v4.82h-2.3v-3.36c0-.81.66-1.46,1.46-1.46Z" transform="translate(42.81 -56.66) rotate(21.35)"/>
      <g>
        <path class="cls-9" d="M249.47,118.2l-6.14-2.4-6.43,16.45,6.14,2.4c1.38.54,2.93-.14,3.47-1.52l4.48-11.46c.54-1.38-.14-2.93-1.52-3.47Z"/>
        <path class="cls-9" d="M166.31,88.58l-4.48,11.46c-.54,1.38.14,2.93,1.52,3.47l6.14,2.4,6.43-16.45-6.14-2.4c-1.38-.54-2.93.14-3.47,1.52Z"/>
      </g>
      <rect class="cls-5" x="169.76" y="87.11" width="3.92" height=".69" transform="translate(43.61 -56.5) rotate(21.34)"/>
      <rect class="cls-3" x="177.67" y="56.11" width="1.49" height="28.12" transform="translate(37.77 -60.11) rotate(21.34)"/>
      <path class="cls-7" d="M185.68,57.91c-.45,1.16-1.76,1.73-2.92,1.28-1.16-.45-1.73-1.76-1.28-2.92.45-1.16,1.76-1.73,2.92-1.28,1.16.45,1.73,1.76,1.28,2.92Z"/>
      <path class="cls-9" d="M159.93,251.48c3.34-3.23,7.9-3.01,12.59-1.18,6.37,2.49,10.56,7.01,7.4,15.09l-18.34-7.16-4.73-1.85,2.07-5.29,1.01.4Z"/>
      <path class="cls-9" d="M145.25,245.74c-.27-4.64-3.77-7.57-8.45-9.4-6.37-2.49-12.51-2-15.67,6.08l18.34,7.16,4.73,1.85,2.07-5.29-1.01-.4Z"/>
      <path class="cls-7" d="M222.72,69.11c-21.53-8.41-45.81,2.22-54.22,23.75-8.41,21.53,2.22,45.81,23.75,54.22,21.53,8.41,45.81-2.22,54.22-23.75,8.41-21.53-2.22-45.81-23.75-54.22ZM193.96,142.73c-15.9-6.21-23.75-24.14-17.54-40.04,6.21-15.9,24.14-23.75,40.04-17.54,15.9,6.21,23.75,24.14,17.54,40.04-6.21,15.9-24.14,23.75-40.04,17.54Z"/>
      <polygon class="cls-7" points="210.45 154.2 174.06 139.98 177.14 132.08 192.95 145.08 213.54 146.3 210.45 154.2"/>
      <rect class="cls-6" x="190.73" y="125.98" width="3.25" height="41.66" rx="1.07" ry="1.07" transform="translate(-14.39 272.55) rotate(-68.66)"/>
      <g>
        <path class="cls-7" d="M201.88,86c-8.82.7-13.36,6.95-11.7,8.71,1.57,1.92,6.66.46,12.35.14,5.65-.58,11.21.31,12.53-1.76,1.44-1.99-4.36-7.76-13.18-7.09Z"/>
        <path class="cls-7" d="M182.93,97.48c-1.83,2.27-1.71,5.07-.23,5.77,1.49.71,3.5-.37,4.87-2.05,1.35-1.7,1.87-3.82.84-5.11-1.01-1.28-3.65-.88-5.48,1.39Z"/>
      </g>
      <rect class="cls-8" x="169.92" y="159.97" width="22.82" height="30.18" rx="1.82" ry="1.82" transform="translate(-47.72 280.24) rotate(-68.66)"/>
      <rect class="cls-9" x="138.42" y="209.76" width="12.46" height="18.11" rx="1.71" ry="1.71" transform="translate(-111.8 273.91) rotate(-68.66)"/>
      <rect class="cls-9" x="172.4" y="223.03" width="12.46" height="18.11" rx="1.71" ry="1.71" transform="translate(-102.55 314) rotate(-68.66)"/>
      <rect class="cls-6" x="174.36" y="168.61" width="17.84" height="2.9" transform="translate(74.46 -55.04) rotate(21.34)"/>
      <rect class="cls-6" x="172.41" y="173.61" width="17.84" height="2.9" transform="translate(76.14 -53.98) rotate(21.34)"/>
      <rect class="cls-6" x="170.45" y="178.61" width="17.84" height="2.9" transform="translate(77.83 -52.93) rotate(21.34)"/>
      <g>
        <path class="cls-7" d="M185.41,252.89v-8.13h3.5c.4,0,.76.08,1.1.25.34.16.62.38.86.64.24.26.43.56.57.9.14.34.21.68.21,1.02s-.06.71-.19,1.05-.31.64-.54.9c-.23.26-.51.47-.85.63s-.7.23-1.09.23h-1.33v2.49h-2.23ZM187.65,248.45h1.18c.14,0,.26-.06.38-.19.12-.13.18-.35.18-.68s-.07-.56-.21-.69c-.14-.12-.28-.18-.41-.18h-1.12v1.74Z"/>
        <path class="cls-7" d="M198.33,250.94v1.95h-5.79v-8.13h5.69v1.95h-3.46v1.14h2.95v1.81h-2.95v1.28h3.56Z"/>
        <path class="cls-7" d="M199.38,252.89v-8.13h3.73c.4,0,.76.08,1.1.25.34.16.62.38.86.64.24.26.43.56.57.9.14.34.21.68.21,1.02,0,.47-.1.91-.31,1.32s-.49.74-.86,1l1.72,2.99h-2.52l-1.43-2.49h-.84v2.49h-2.23ZM201.61,248.45h1.41c.14,0,.27-.08.38-.23.12-.15.18-.37.18-.64s-.07-.5-.21-.65-.28-.22-.41-.22h-1.35v1.74Z"/>
        <path class="cls-7" d="M207.1,252.89v-8.13h3.12c.67,0,1.26.11,1.77.32.51.21.94.5,1.28.87.34.37.6.8.78,1.29.18.49.26,1.02.26,1.57,0,.62-.1,1.18-.29,1.68-.19.5-.47.93-.83,1.28s-.79.63-1.29.82c-.5.19-1.06.29-1.68.29h-3.12ZM212.06,248.81c0-.31-.04-.6-.13-.86-.08-.26-.2-.48-.36-.66s-.35-.33-.58-.43-.48-.15-.77-.15h-.89v4.23h.89c.29,0,.55-.05.78-.16.23-.11.42-.26.58-.45.16-.19.27-.42.35-.67.08-.26.12-.54.12-.85Z"/>
        <path class="cls-7" d="M215.29,252.89v-8.13h2.23v8.13h-2.23Z"/>
        <path class="cls-7" d="M218.92,252.89v-8.13h3.12c.67,0,1.26.11,1.77.32.51.21.94.5,1.28.87.34.37.6.8.78,1.29.18.49.26,1.02.26,1.57,0,.62-.1,1.18-.29,1.68-.19.5-.47.93-.83,1.28s-.79.63-1.29.82c-.5.19-1.06.29-1.68.29h-3.12ZM223.88,248.81c0-.31-.04-.6-.13-.86-.08-.26-.2-.48-.36-.66s-.35-.33-.58-.43-.48-.15-.77-.15h-.89v4.23h.89c.29,0,.55-.05.78-.16.23-.11.42-.26.58-.45.16-.19.27-.42.35-.67.08-.26.12-.54.12-.85Z"/>
        <path class="cls-7" d="M228.89,244.76h2.04l2.82,8.13h-2.27l-.49-1.59h-2.16l-.48,1.59h-2.28l2.83-8.13ZM230.63,249.81l-.72-2.52-.75,2.52h1.48Z"/>
        <path class="cls-7" d="M242.44,250.94v1.95h-5.79v-8.13h5.69v1.95h-3.46v1.14h2.95v1.81h-2.95v1.28h3.56Z"/>
        <path class="cls-7" d="M245.71,248.89v3.99h-2.23v-8.13h1.74l3.26,4.13v-4.13h2.23v8.13h-1.77l-3.23-3.99Z"/>
        <path class="cls-7" d="M260.48,250.94v1.95h-5.79v-8.13h5.69v1.95h-3.46v1.14h2.95v1.81h-2.95v1.28h3.56Z"/>
        <path class="cls-7" d="M261.52,252.89v-8.13h2.23v6.18h3.68v1.95h-5.92Z"/>
        <path class="cls-7" d="M276.24,250.94v1.95h-5.79v-8.13h5.69v1.95h-3.46v1.14h2.95v1.81h-2.95v1.28h3.56Z"/>
        <path class="cls-7" d="M282.21,247.42c-.23-.14-.47-.26-.71-.37-.21-.09-.44-.18-.69-.26-.26-.08-.51-.12-.75-.12-.2,0-.36.03-.48.09s-.18.16-.18.31c0,.11.03.19.1.26.07.07.17.13.3.19.13.06.29.11.47.17.19.05.4.12.64.2.37.11.71.24,1.01.38s.56.3.77.49c.21.19.38.41.49.68s.17.59.17.97c0,.49-.09.9-.27,1.23-.18.33-.42.6-.71.8-.29.2-.63.34-1,.43-.37.09-.74.13-1.12.13-.3,0-.6-.02-.91-.07-.31-.05-.62-.11-.93-.19-.31-.08-.61-.18-.89-.3-.29-.12-.55-.24-.8-.39l.96-1.96c.27.17.55.32.84.45.24.11.52.22.83.31.31.09.62.14.94.14.24,0,.41-.03.51-.1.1-.07.14-.15.14-.26,0-.11-.05-.21-.14-.29s-.23-.15-.39-.21c-.17-.06-.36-.12-.58-.18s-.45-.13-.69-.22c-.36-.12-.67-.25-.93-.4-.26-.14-.47-.3-.64-.48-.17-.18-.29-.38-.37-.61-.08-.23-.12-.49-.12-.79,0-.45.08-.85.25-1.19s.39-.63.67-.86c.28-.23.6-.4.97-.52.36-.12.75-.18,1.15-.18.3,0,.59.03.87.09.28.06.56.13.82.22.26.09.51.18.74.29.23.1.43.2.62.29l-.96,1.84Z"/>
        <path class="cls-7" d="M284.35,252.89v-8.13h3.5c.4,0,.76.08,1.1.25.34.16.62.38.86.64.24.26.43.56.57.9.14.34.21.68.21,1.02s-.06.71-.19,1.05-.31.64-.54.9c-.23.26-.51.47-.85.63s-.7.23-1.09.23h-1.33v2.49h-2.23ZM286.58,248.45h1.18c.14,0,.26-.06.38-.19.12-.13.18-.35.18-.68s-.07-.56-.21-.69c-.14-.12-.28-.18-.41-.18h-1.12v1.74Z"/>
        <path class="cls-7" d="M292.99,244.76h2.04l2.82,8.13h-2.27l-.49-1.59h-2.16l-.48,1.59h-2.28l2.83-8.13ZM294.73,249.81l-.72-2.52-.75,2.52h1.48Z"/>
        <path class="cls-7" d="M297.74,248.76c0-.5.09-.98.28-1.46.19-.48.46-.91.82-1.29.36-.38.79-.69,1.3-.93.51-.24,1.1-.36,1.75-.36.79,0,1.47.16,2.04.49s1,.75,1.29,1.29l-1.71,1.21c-.08-.2-.18-.36-.3-.49-.13-.13-.27-.23-.42-.31-.15-.08-.31-.13-.48-.16-.16-.03-.32-.05-.47-.05-.32,0-.6.06-.83.19-.23.13-.42.29-.57.49-.15.2-.26.43-.33.69s-.11.51-.11.76c0,.28.04.55.13.81.08.26.21.49.37.69s.36.36.59.48c.23.12.49.18.78.18.15,0,.31-.02.47-.05.16-.03.31-.09.46-.17s.28-.18.4-.31c.12-.13.21-.28.28-.46l1.82,1.09c-.12.3-.31.56-.56.8-.25.24-.53.44-.85.59-.32.16-.66.28-1.02.37-.36.08-.72.13-1.06.13-.6,0-1.15-.12-1.65-.36-.5-.24-.93-.56-1.29-.96-.36-.4-.64-.85-.84-1.35s-.3-1.01-.3-1.53Z"/>
        <path class="cls-7" d="M306.09,252.89v-8.13h2.23v8.13h-2.23Z"/>
        <path class="cls-7" d="M313.38,252.96c-.62,0-1.18-.12-1.68-.36s-.93-.55-1.29-.93c-.36-.39-.64-.83-.84-1.32s-.3-1.01-.3-1.53.1-1.05.31-1.54c.21-.5.49-.93.86-1.31.37-.38.81-.68,1.32-.9s1.06-.34,1.67-.34,1.18.12,1.68.36.93.55,1.29.94c.36.39.64.83.83,1.33.2.5.29,1,.29,1.52s-.1,1.05-.31,1.54c-.21.49-.49.93-.86,1.3-.37.38-.8.68-1.31.91-.51.23-1.06.34-1.67.34ZM311.54,248.84c0,.27.04.54.11.8.08.26.19.48.34.68s.35.36.58.48c.23.12.51.18.83.18s.6-.06.84-.19c.24-.13.43-.29.58-.49.15-.2.26-.43.33-.69.07-.26.11-.52.11-.79s-.04-.54-.11-.8-.19-.48-.35-.68c-.16-.19-.35-.35-.58-.47-.23-.12-.51-.18-.82-.18s-.6.06-.83.18-.43.28-.58.49c-.15.2-.27.43-.34.69-.07.26-.11.52-.11.78Z"/>
      </g>
      <g>
        <path class="cls-1" d="M276.89,68.66h3.44c.41,0,.75-.34.75-.75v-3.35c0-.82.61-1.55,1.43-1.59.87-.05,1.59.65,1.59,1.5v3.44c0,.41.34.75.75.75h3.35c.82,0,1.55.61,1.59,1.43.05.87-.65,1.59-1.5,1.59h-3.44c-.41,0-.75.34-.75.75v3.35c0,.82-.61,1.55-1.43,1.59-.87.05-1.59-.65-1.59-1.5v-3.44c0-.41-.34-.75-.75-.75h-3.35c-.82,0-1.55-.61-1.59-1.43-.05-.87.65-1.59,1.5-1.59Z"/>
        <path class="cls-1" d="M43.21,247.46h3.44c.41,0,.75-.34.75-.75v-3.35c0-.82.61-1.55,1.43-1.59.87-.05,1.59.65,1.59,1.5v3.44c0,.41.34.75.75.75h3.35c.82,0,1.55.61,1.59,1.43.05.87-.65,1.59-1.5,1.59h-3.44c-.41,0-.75.34-.75.75v3.35c0,.82-.61,1.55-1.43,1.59-.87.05-1.59-.65-1.59-1.5v-3.44c0-.41-.34-.75-.75-.75h-3.35c-.82,0-1.55-.61-1.59-1.43-.05-.87.65-1.59,1.5-1.59Z"/>
        <path class="cls-1" d="M116.91,93.86h3.44c.41,0,.75-.34.75-.75v-3.35c0-.82.61-1.55,1.43-1.59.87-.05,1.59.65,1.59,1.5v3.44c0,.41.34.75.75.75h3.35c.82,0,1.55.61,1.59,1.43.05.87-.65,1.59-1.5,1.59h-3.44c-.41,0-.75.34-.75.75v3.35c0,.82-.61,1.55-1.43,1.59-.87.05-1.59-.65-1.59-1.5v-3.44c0-.41-.34-.75-.75-.75h-3.35c-.82,0-1.55-.61-1.59-1.43-.05-.87.65-1.59,1.5-1.59Z"/>
        <path class="cls-1" d="M101.78,54.23h.74c.53,0,.95-.43.95-.95v-.74c0-.34.27-.61.61-.61s.61.27.61.61v.74c0,.53.43.95.95.95h.74c.34,0,.61.27.61.61s-.27.61-.61.61h-.74c-.53,0-.95.43-.95.95v.74c0,.34-.27.61-.61.61s-.61-.27-.61-.61v-.74c0-.53-.43-.95-.95-.95h-.74c-.34,0-.61-.27-.61-.61s.27-.61.61-.61Z"/>
        <path class="cls-1" d="M310.6,273.56h.74c.53,0,.95-.43.95-.95v-.74c0-.34.27-.61.61-.61s.61.27.61.61v.74c0,.53.43.95.95.95h.74c.34,0,.61.27.61.61s-.27.61-.61.61h-.74c-.53,0-.95.43-.95.95v.74c0,.34-.27.61-.61.61s-.61-.27-.61-.61v-.74c0-.53-.43-.95-.95-.95h-.74c-.34,0-.61-.27-.61-.61s.27-.61.61-.61Z"/>
        <path class="cls-1" d="M357.25,110.6h.74c.53,0,.95-.43.95-.95v-.74c0-.34.27-.61.61-.61s.61.27.61.61v.74c0,.53.43.95.95.95h.74c.34,0,.61.27.61.61s-.27.61-.61.61h-.74c-.53,0-.95.43-.95.95v.74c0,.34-.27.61-.61.61s-.61-.27-.61-.61v-.74c0-.53-.43-.95-.95-.95h-.74c-.34,0-.61-.27-.61-.61s.27-.61.61-.61Z"/>
        <path class="cls-1" d="M287.48,21.38h.74c.53,0,.95-.43.95-.95v-.74c0-.34.27-.61.61-.61s.61.27.61.61v.74c0,.53.43.95.95.95h.74c.34,0,.61.27.61.61s-.27.61-.61.61h-.74c-.53,0-.95.43-.95.95v.74c0,.34-.27.61-.61.61s-.61-.27-.61-.61v-.74c0-.53-.43-.95-.95-.95h-.74c-.34,0-.61-.27-.61-.61s.27-.61.61-.61Z"/>
        <path class="cls-1" d="M37.01,102.4c.59,0,1.07.48,1.07,1.07s-.48,1.07-1.07,1.07-1.07-.48-1.07-1.07.48-1.07,1.07-1.07Z"/>
        <path class="cls-1" d="M258.09,276.01c.59,0,1.07.48,1.07,1.07s-.48,1.07-1.07,1.07-1.07-.48-1.07-1.07.48-1.07,1.07-1.07Z"/>
        <path class="cls-1" d="M111.98,270.2c.59-.05,1.1.39,1.15.98.05.59-.39,1.1-.98,1.15-.59.05-1.1-.39-1.15-.98-.05-.59.39-1.1.98-1.15Z"/>
        <path class="cls-1" d="M347.72,45c.59,0,1.07.48,1.07,1.07s-.48,1.07-1.07,1.07-1.07-.48-1.07-1.07.48-1.07,1.07-1.07Z"/>
        <path class="cls-1" d="M6.22,181.28c1.14,0,2.07.93,2.07,2.07s-.93,2.07-2.07,2.07-2.07-.93-2.07-2.07.93-2.07,2.07-2.07Z"/>
        <path class="cls-1" d="M2.07,64.16c1.14,0,2.07.93,2.07,2.07s-.93,2.07-2.07,2.07-2.07-.93-2.07-2.07.93-2.07,2.07-2.07Z"/>
        <path class="cls-1" d="M216.27,0c1.14,0,2.07.93,2.07,2.07s-.93,2.07-2.07,2.07-2.07-.93-2.07-2.07.93-2.07,2.07-2.07Z"/>
        <circle class="cls-1" cx="377.13" cy="196.36" r="1.07"/>
        <path class="cls-1" d="M222.15,217.74c.59,0,1.07.48,1.07,1.07s-.48,1.07-1.07,1.07-1.07-.48-1.07-1.07.48-1.07,1.07-1.07Z"/>
        <path class="cls-1" d="M68.73,20.92c.59.02,1.05.52,1.03,1.11-.02.59-.52,1.05-1.11,1.03-.59-.02-1.05-.52-1.03-1.11.02-.59.52-1.05,1.11-1.03Z"/>
      </g>
    </g>
  </g>
</svg>